<?xml version="1.0" standalone="yes"?>
<svg xmlns="http://www.w3.org/2000/svg" width="520" height="480">
<path style="fill:#feffff; stroke:none;" d="M0 0L0 480L520 480L520 0L0 0z"/>
<path style="fill:#214ca9; stroke:none;" d="M223 226C220.635 216.066 220.934 205.162 219.715 195C217.578 177.197 214.345 159.253 209.421 142C206.257 130.911 202.212 118.941 194.674 110.004C184.681 98.1555 172.506 101.042 159 104.014C132.523 109.84 104.092 122.204 87.0147 144C71.6438 163.618 65.2515 190.579 57.9745 214C43.3326 261.126 30.1621 309.996 23.7184 359C21.4837 375.994 19.7347 392.926 20.9105 410C21.4602 417.982 21.6282 427.227 26.8002 433.895C32.6683 441.461 44.3864 441.251 53 442.424C80.2868 446.138 111.681 441.923 138 434.421C151.527 430.565 164.855 425.772 177 418.547C190.544 410.49 202.591 399.283 209.627 385C216.391 371.268 218.663 354.051 220.169 339C222.176 318.939 224 299.192 224 279C224 269.667 224.044 260.333 223.999 251C223.982 247.526 222.766 243.402 223.407 240.019C224.195 235.859 228.567 234.343 232 232.85C238.497 230.025 250.711 227.145 255.258 221.582C257.902 218.346 257 212.882 257 209L257 180L257 89C257 82.2339 258.435 73.5954 256.682 67.044C255.933 64.243 253.173 61.7341 250.147 63.1366C245.81 65.1472 247 72.1804 247 76L247 113L247 185L247 205C246.999 207.797 247.458 211.27 245.972 213.787C242.234 220.121 229.196 222.397 223 226M297 225C291.098 223.951 285.471 220.988 280 218.575C277.473 217.46 274.503 216.286 273.028 213.787C271.403 211.034 272 207.059 272 204L272 184L272 107L272 74C271.998 70.4038 272.745 63.8446 267.957 62.8318C264.703 62.1436 262.742 65.288 262.228 68.0154C260.984 74.6285 262 82.2802 262 89L262 179L262 209C262 212.882 261.098 218.346 263.742 221.582C268.381 227.257 280.443 229.774 287 232.769C290.174 234.219 294.628 235.351 295.682 239.108C297.015 243.859 295.249 249.218 295.039 254C294.589 264.294 294.996 274.696 295 285C295.009 308.481 296.995 332.933 301.6 356C303.991 367.973 306.099 379.342 312.453 390C321.013 404.359 334.24 414.742 349 422.244C361.635 428.666 375.171 433.325 389 436.424C414.016 442.029 441.392 445.608 467 442.282C475.142 441.224 486.863 440.967 492.351 433.895C496.572 428.455 497.366 420.59 498.155 414C500.329 395.84 497.966 377.035 495.424 359C488.002 306.338 474.487 253.461 457.667 203C449.995 179.985 443.641 154.676 425.985 137.015C408.083 119.107 382.5 108.609 358 103.601C348.891 101.739 338.18 98.4945 330.001 104.558C319.736 112.167 315.2 125.358 311.333 137C302.238 164.387 297 196.136 297 225z"/>
<path style="fill:#feffff; stroke:none;" d="M214 241C207.364 242.815 197.648 245.79 192.61 250.637C188.68 254.418 186.194 260.366 183.399 265L167 292C162.886 298.857 154.777 308.017 153.588 316C152.973 320.127 154.354 324.896 154.845 329C155.843 337.335 156.456 345.676 157.576 354C158.087 357.802 160.101 365.523 155.769 367.762C151.204 370.121 149.038 364.396 148.444 361C146.692 350.992 145.801 340.15 145 330C141.129 333.753 139.41 340.459 134.816 343.338C130.272 346.185 127.792 340.733 129.244 337C132.934 327.51 140.211 318.997 145 310C130.396 311.456 114.909 319.03 101 323.667C97.1798 324.94 87.6948 329.72 85.4074 323.867C84.1423 320.63 87.5611 318.572 90.0154 317.468C96.676 314.473 104.075 312.642 111 310.333C120.988 307.004 131.055 303.867 141 300.424C144.758 299.123 149.434 298.587 152.671 296.157C156.432 293.333 158.63 287.95 161 284C166.112 275.48 173.184 266.572 176 257C164.904 261.613 154.027 266.792 143 271.576C139.634 273.036 133.888 276.778 130.323 274.164C126.361 271.26 130.1 267.309 133.019 265.681C141.256 261.087 150.475 258.04 159 254C148.121 244.547 132.514 241.577 121.113 232.895C117.999 230.524 116.632 224.888 122.045 224.241C125.246 223.858 129.13 226.799 132 228C131.45 221.266 128.641 214.747 128.348 208.004C128.23 205.291 129.537 201.748 132.914 202.176C135.708 202.53 136.982 205.683 137.696 208.004C139.71 214.553 140.704 221.37 142.375 227.999C144.596 236.807 151.701 238.311 159 242.424C162.621 244.465 166.71 247.449 171 247.682C174.55 247.875 177.855 245.787 181 244.424C188.011 241.386 195.048 238.402 202 235.231C205.022 233.852 210.145 232.646 211.933 229.606C213.367 227.17 212.155 223.645 212.039 221C211.732 213.96 211.144 207 210.285 200C207.838 180.078 204.958 160.235 198.975 141C196.178 132.009 192.725 121.84 185.907 115.059C178.368 107.561 165.956 112.362 157 114.735C132.184 121.307 104.482 133.255 90.4668 156C79.0222 174.573 73.3351 197.317 66.9753 218C53.9934 260.22 43.1381 303.421 35.9198 347C33.7137 360.318 32.1285 373.584 30.8302 387C29.7259 398.412 28.6917 410.819 31.9244 421.999C36.0075 436.121 60.456 433 72 433C109.902 433 155.206 426.241 185 400.7C203.439 384.892 207.412 361.851 210.155 339C214.081 306.295 214 273.938 214 241M387 228C389.863 226.802 393.801 223.774 396.98 224.102C402.589 224.681 401.114 230.647 397.89 233.034C386.385 241.552 371.068 244.821 360 254C368.534 258.039 377.73 261.08 385.981 265.681C388.863 267.288 392.678 271.29 388.677 274.154C385.148 276.68 379.317 272.841 376 271.421C364.965 266.699 354.107 261.557 343 257C346.016 266.527 353.07 275.45 358.2 284C360.506 287.844 362.669 293.221 366.379 295.914C370.093 298.611 375.69 299.563 380 301L408 310.333C414.942 312.647 422.241 314.546 428.985 317.388C431.472 318.437 435.004 320.582 433.744 323.856C431.564 329.519 422.694 325.231 419 324C404.834 319.279 389.776 312.182 375 310C378.163 319.992 387.813 327.899 390.242 337.999C391.126 341.672 388.013 345.776 384.209 343.338C380.104 340.706 377.644 333.995 375 330C371.068 338.181 371.788 350.034 370.83 359C370.505 362.041 369.831 367.564 365.947 368.079C361.353 368.687 360.75 363.178 360.969 360C361.637 350.33 363.003 340.628 364.155 331C364.747 326.053 366.193 319.94 365.181 315C364.172 310.071 360.153 305.254 357.6 301C351.782 291.302 345.818 281.697 340 272C335.926 265.21 331.945 254.771 325.671 249.815C320.407 245.656 312.301 243.145 306 241C303.546 254.219 305 268.582 305 282C305 300.766 306.615 319.375 308.845 338C312.194 365.976 317.873 390.86 343 407.304C374.085 427.648 413.645 433 450 433C458.477 433 466.644 432.811 475 431.195C480.051 430.219 484.375 429.19 486.437 423.985C489.321 416.701 489 408.667 489 401C489 384.578 486.743 368.193 484.08 352C476.737 307.34 465.768 263.314 452.72 220C446.347 198.844 440.618 174.729 428.561 156C413.966 133.329 387.208 121.38 362 114.735C353.974 112.619 341.081 108.012 334.093 114.228C327.031 120.511 323.893 130.327 321 139C314.265 159.188 311.449 179.989 308.718 201C307.851 207.678 307.369 214.295 306.91 221C306.725 223.708 305.507 227.103 307.042 229.606C308.903 232.641 313.939 233.834 317 235.231C323.616 238.249 330.324 241.118 337 244C340.137 245.354 343.519 247.493 347 247.682C354.038 248.064 362.03 241.366 367.999 238.258C370.375 237.022 373.296 235.949 374.825 233.61C376.661 230.8 376.999 226.233 377.846 223C379.21 217.791 379.797 211.985 381.879 207.005C382.746 204.932 384.384 202.306 386.96 202.346C389.873 202.39 390.816 205.646 390.768 208.004C390.632 214.674 387.535 221.283 387 228z"/>
</svg>
