<?xml version="1.0" standalone="no"?>
<!DOCTYPE svg PUBLIC "-//W3C//DTD SVG 20010904//EN"
 "http://www.w3.org/TR/2001/REC-SVG-20010904/DTD/svg10.dtd">
<svg version="1.0" xmlns="http://www.w3.org/2000/svg"
 width="520.000000pt" height="480.000000pt" viewBox="0 0 520.000000 480.000000"
 preserveAspectRatio="xMidYMid meet">

<g transform="translate(0.000000,480.000000) scale(0.100000,-0.100000)"
fill="#000000" stroke="none">
<path d="M2490 4160 c-20 -20 -20 -33 -20 -768 l0 -747 -112 -49 c-62 -27
-118 -50 -124 -53 -7 -3 -13 28 -18 89 -15 205 -59 492 -102 663 -76 307 -199
495 -323 495 -57 0 -245 -42 -361 -80 -332 -109 -550 -283 -665 -533 -83 -181
-257 -741 -365 -1179 -125 -508 -179 -836 -187 -1133 -6 -221 2 -289 42 -371
29 -60 57 -76 168 -101 90 -21 454 -23 602 -4 576 74 958 290 1091 618 78 194
133 734 121 1199 l-6 231 157 68 c86 38 163 75 170 84 9 11 12 183 12 783 0
755 0 768 -20 788 -11 11 -24 20 -30 20 -5 0 -19 -9 -30 -20z m-666 -479 c138
-86 259 -526 301 -1101 l6 -85 -210 -92 -211 -91 -132 70 c-73 39 -135 72
-137 74 -2 2 -18 69 -37 150 -19 81 -39 153 -45 160 -15 19 -54 18 -70 -2 -11
-13 -10 -30 6 -102 10 -48 20 -100 23 -115 l5 -29 -41 21 c-52 27 -88 27 -102
1 -23 -43 -10 -52 268 -197 74 -39 133 -74 133 -79 0 -5 -66 -38 -147 -74 -81
-36 -149 -71 -152 -78 -7 -23 8 -61 27 -67 12 -3 99 30 236 90 120 53 219 94
220 93 2 -2 -49 -91 -114 -197 l-117 -195 -334 -111 c-352 -117 -375 -128
-350 -174 6 -13 21 -21 36 -21 14 0 142 39 285 86 143 47 264 84 269 82 4 -2
-30 -66 -76 -143 -46 -77 -84 -150 -84 -162 0 -26 32 -47 59 -38 11 3 38 38
62 77 52 88 52 89 74 -126 9 -88 21 -168 26 -178 11 -20 49 -24 67 -6 17 17
15 67 -13 308 l-25 215 198 329 199 329 99 44 c54 23 102 43 106 43 12 0 10
-574 -2 -731 -21 -264 -60 -505 -100 -612 -109 -292 -483 -496 -1030 -563
-161 -19 -513 -15 -595 7 -45 13 -52 19 -75 64 -24 48 -25 57 -24 240 1 207
13 318 70 630 79 431 217 970 354 1383 79 240 131 364 186 444 150 220 453
375 873 447 2 1 18 -8 35 -18z"/>
<path d="M2657 4173 c-10 -3 -22 -16 -28 -29 -5 -15 -9 -330 -9 -777 0 -641 2
-756 15 -773 8 -12 82 -51 170 -89 l156 -68 -6 -211 c-15 -452 38 -988 119
-1210 107 -297 438 -510 931 -601 392 -72 814 -54 906 37 101 102 99 473 -7
1038 -106 567 -353 1423 -494 1715 -86 178 -218 306 -428 414 -160 81 -464
171 -583 171 -197 0 -355 -421 -420 -1118 -8 -87 -16 -131 -23 -129 -6 3 -62
26 -123 53 l-113 49 -2 754 c-3 741 -3 754 -23 766 -11 6 -28 10 -38 8z m860
-498 c335 -64 622 -222 757 -417 177 -257 520 -1523 601 -2218 30 -250 15
-474 -33 -522 -30 -31 -156 -47 -357 -48 -678 -1 -1210 236 -1329 592 -40 121
-78 370 -96 626 -12 187 -13 689 -1 696 5 3 53 -14 107 -37 l98 -43 198 -328
199 -329 -26 -221 c-28 -250 -30 -287 -13 -304 16 -16 53 -15 66 1 6 6 19 92
30 190 11 98 22 180 25 183 2 3 24 -27 48 -66 24 -38 51 -73 61 -76 27 -8 58
14 58 41 0 13 -38 87 -85 164 -46 78 -79 141 -73 141 6 0 128 -38 270 -85 143
-47 271 -85 284 -85 21 0 44 25 44 49 0 24 -47 44 -360 146 l-332 110 -115
193 c-64 106 -114 194 -112 196 2 2 101 -38 219 -90 182 -80 219 -93 238 -84
19 8 23 17 20 42 -3 31 -8 34 -150 98 -80 36 -149 68 -153 71 -3 4 78 51 182
105 103 54 199 108 212 120 22 19 24 25 13 48 -14 32 -47 34 -102 6 -47 -24
-47 -25 -20 88 23 96 25 123 8 140 -16 16 -53 15 -66 -1 -6 -7 -26 -79 -44
-161 l-34 -149 -136 -73 -137 -73 -202 90 c-112 49 -206 92 -211 97 -18 18 27
414 73 647 44 221 114 416 177 490 33 39 74 65 96 60 11 -2 58 -11 103 -20z"/>
</g>
</svg>
